<svg width="64" height="64" version="1.1" viewBox="0 0 64 64" xmlns="http://www.w3.org/2000/svg"><path d="m32 14c-7.1-0.098-14 4.5-17 11-2.8 6.4-1.3 14 3.6 19 4.7 5 12 6.9 19 4.6 1.8-0.39 3.4-2 3.1-4-0.15-2.4-3-3.9-5-2.8-4.7 1.9-11-0.01-13-4.3-2.9-4.3-2.1-11 1.9-14 3.8-3.6 10-3.8 14-0.49 1.7 1.3 2.9 3.1 3.6 5.1-3.6 0.012-7.2-0.024-11 0.018-2.5 0.15-4.1 3.4-2.5 5.4 0.93 1.6 2.8 1.6 4.4 1.5 4.4-0.013 8.8 0.027 13-0.02 2 0.041 3.6-1.8 3.3-3.8-0.042-7.1-4.7-14-11-16-2.1-0.86-4.4-1.3-6.7-1.3z" fill="#1f9cf0" style="paint-order:normal"/></svg>
