<svg width="64" height="64" version="1.1" viewBox="0 0 64 64" xmlns="http://www.w3.org/2000/svg"><g transform="translate(0 -280)"><g transform="matrix(.26 0 0 .26 7.1 248)" clip-rule="evenodd" fill-rule="evenodd" stroke-linejoin="round" stroke-miterlimit="1.4"><g transform="matrix(7.6 0 0 7.6 3.3 152)" stroke-opacity="0"><path d="m0 0h24v24h-24z" fill="none" stroke-opacity="0"/><g transform="matrix(.5 0 0 .5 -6.4 -141)"><g transform="matrix(.26 0 0 .26 7.1 248)" clip-rule="evenodd" fill-rule="evenodd" stroke="#71b8f6" stroke-linejoin="round" stroke-miterlimit="1.4" stroke-opacity="1"><g transform="matrix(7.6,0,0,7.6,3.3,152)" stroke="#71b8f6" stroke-opacity="1"><path d="m18 5-3.2 3.2-3.2-3.2-1.7 1.7 3.2 3.2-3.2 3.2 1.7 1.7 3.2-3.2 3.2 3.2 1.7-1.7-3.2-3.2 3.2-3.2zm-3.2-7.3c-6.7 0-12 5.5-12 12s5.5 12 12 12c6.7 0 12-5.5 12-12s-5.5-12-12-12zm0 22c-5.3 0-9.7-4.4-9.7-9.7 0-5.3 4.4-9.7 9.7-9.7 5.3 0 9.7 4.4 9.7 9.7 0 5.3-4.4 9.7-9.7 9.7z" fill="#ff937a" stroke="none"/></g></g></g></g></g></g></svg>
