<svg width="64" height="64" version="1.1" viewBox="0 0 64 64" xmlns="http://www.w3.org/2000/svg"><g transform="translate(0 -280)"><g transform="matrix(.26 0 0 .26 7.1 248)" clip-rule="evenodd" fill-rule="evenodd" stroke-linejoin="round" stroke-miterlimit="1.4"><g transform="matrix(7.6 0 0 7.6 3.3 152)" stroke-opacity="0"><path d="m0 0h24v24h-24z" fill="none" stroke-opacity="0"/><path d="m11 16h2.4v2.4h-2.4zm0-9.6h2.4v7.2h-2.4zm1.2-6c-6.6 0-12 5.4-12 12 0 6.6 5.4 12 12 12 6.6 0 12-5.4 12-12 0-6.6-5.4-12-12-12zm0.012 22c-5.3 0-9.6-4.3-9.6-9.6 0-5.3 4.3-9.6 9.6-9.6s9.6 4.3 9.6 9.6c0 5.3-4.3 9.6-9.6 9.6z" fill="#71b8f6"/></g></g></g></svg>
