<svg width="64" height="64" version="1.1" viewBox="0 0 64 64" xmlns="http://www.w3.org/2000/svg"><g transform="translate(0 -280)"><g transform="matrix(.26 0 0 .26 7.1 248)" clip-rule="evenodd" fill-rule="evenodd" stroke-linejoin="round" stroke-miterlimit="1.4"><g transform="matrix(7.6 0 0 7.6 3.3 152)"><path d="m0 0h24v24h-24z" fill="none" stroke-opacity="0"/><g transform="matrix(.5 0 0 .5 22 -136)" stroke="#71b8f6"><g transform="matrix(.26 0 0 .26 7.1 248)" clip-rule="evenodd" fill-rule="evenodd" stroke="#71b8f6" stroke-linejoin="round" stroke-miterlimit="1.4"><g transform="matrix(7.6,0,0,7.6,1.5,146)" stroke="#71b8f6"><g transform="matrix(1.1 0 0 1.1 -28 -7.5)" fill="#d9b100" stroke="none"><path d="m12 6 7.5 13h-15l7.5-13m0-4-11 19h22z"/><polygon points="11 18 13 18 13 16 11 16"/><polygon points="11 15 13 15 13 10 11 10"/></g></g></g></g></g></g></g></svg>
